<?xml version="1.0" encoding="utf-8"?>
<!-- Generator: Adobe Illustrator 15.1.0, SVG Export Plug-In . SVG Version: 6.00 Build 0)  -->
<!DOCTYPE svg PUBLIC "-//W3C//DTD SVG 1.1//EN" "http://www.w3.org/Graphics/SVG/1.1/DTD/svg11.dtd">
<svg version="1.1" id="Layer_1" xmlns="http://www.w3.org/2000/svg" xmlns:xlink="http://www.w3.org/1999/xlink" x="0px" y="0px"
	 width="50px" height="50px" viewBox="0 0 50 50" enable-background="new 0 0 50 50" xml:space="preserve">
<rect fill="#E51313" width="50" height="50"/>
<path fill="#F9C900" d="M48.969,46c0,1.657-1.343,3-3,3H4.808c-1.657,0-3-1.343-3-3V4.567c0-1.657,1.343-3,3-3h41.161
	c1.657,0,3,1.343,3,3V46z"/>
<path fill="#B3BBC1" d="M47.737,44.892c0,1.571-1.272,2.844-2.844,2.844H5.882c-1.57,0-2.843-1.272-2.843-2.844V5.675
	c0-1.57,1.273-2.843,2.843-2.843h39.011c1.571,0,2.844,1.273,2.844,2.843V44.892z"/>
</svg>
